<svg width="100" height="100" viewBox="0 0 100 100" fill="none" xmlns="http://www.w3.org/2000/svg">
<path d="M84 55.2274C84 55.9525 83.7374 56.653 83.2609 57.1994L52.2609 92.7413C51.0653 94.112 48.9347 94.112 47.7391 92.7413L16.7391 57.1994C16.2626 56.653 16 55.9525 16 55.2274V25.1592C16 22.6526 18.8917 21.2513 20.8591 22.8046L38.3896 36.6459C38.919 37.064 39.574 37.2914 40.2486 37.2914H59.7523C60.427 37.2914 61.0819 37.064 61.6114 36.6459L79.1409 22.8048C81.1082 21.2515 84 22.6527 84 25.1593V55.2274ZM38.2617 57.4447C36.3989 57.4447 34.8887 58.9549 34.8887 60.8177C34.8888 62.6805 36.399 64.1908 38.2617 64.1908C40.1245 64.1908 41.6346 62.6805 41.6348 60.8177C41.6348 58.9549 40.1246 57.4447 38.2617 57.4447ZM61.7383 57.4447C59.8754 57.4447 58.3652 58.9549 58.3652 60.8177C58.3654 62.6805 59.8755 64.1908 61.7383 64.1908C63.601 64.1908 65.1112 62.6805 65.1113 60.8177C65.1113 58.9549 63.6011 57.4447 61.7383 57.4447Z" fill="black"/>
<path d="M48 9C48 7.89543 48.8954 7 50 7C51.1046 7 52 7.89543 52 9L52 24C52 25.1046 51.1046 26 50 26C48.8954 26 48 25.1046 48 24L48 9Z" fill="#238BE6"/>
<path d="M63.875 13.681C64.4273 12.7245 65.6505 12.3967 66.6071 12.949C67.5636 13.5013 67.8913 14.7245 67.3391 15.681L61.0002 26.6603C60.4479 27.6169 59.2248 27.9446 58.2682 27.3923C57.3116 26.84 56.9838 25.6169 57.5361 24.6603L63.875 13.681Z" fill="#238BE6"/>
<path d="M36.4648 13.681C35.9125 12.7245 34.6894 12.3967 33.7328 12.949C32.7762 13.5013 32.4485 14.7245 33.0007 15.681L39.3396 26.6603C39.8919 27.6169 41.1151 27.9446 42.0717 27.3923C43.0282 26.84 43.356 25.6169 42.8037 24.6603L36.4648 13.681Z" fill="#238BE6"/>
</svg>
