<svg width="30" height="66" viewBox="0 0 30 66" fill="none" xmlns="http://www.w3.org/2000/svg">
<path d="M29.8419 20.4282L25.9435 0.8262C25.7443 -0.2754 24.2443 -0.2754 23.9435 0.8262L19.9435 20.9282H9.94354L5.94354 0.8262C5.74432 -0.2754 4.24434 -0.2754 3.94354 0.8262L0.0451378 20.4282C-0.0564222 20.729 0.0451378 21.1274 0.0451378 21.4282L9.14674 51.6272L3.14674 50.0256C2.84596 49.924 2.64674 50.1272 2.54518 50.424C2.44362 50.7248 2.64674 50.924 2.94362 51.0256L9.54522 52.8264L9.94366 54.2248H2.94366C2.64288 54.2248 2.44366 54.424 2.44366 54.7248C2.44366 55.0256 2.64288 55.2248 2.94366 55.2248H10.2445L10.5452 56.3264L2.94364 58.3264C2.64286 58.428 2.5452 58.6272 2.5452 58.928C2.64676 59.1272 2.84598 59.3264 3.0452 59.3264H3.14676L10.846 57.2248L13.0452 64.424C13.6467 66.3224 16.346 66.3224 16.846 64.424L19.0452 57.2248L26.7444 59.3264H26.8459C27.0451 59.3264 27.2444 59.2248 27.3459 58.928C27.4475 58.6272 27.2444 58.428 26.9475 58.3264L19.3459 56.3264L19.6467 55.2248L26.9436 55.2287C27.2443 55.2287 27.4436 55.0295 27.4436 54.7287C27.4436 54.4279 27.2443 54.2287 26.9436 54.2287H19.9436L20.342 52.8303L26.9436 50.928C27.2444 50.8264 27.342 50.6272 27.342 50.3264C27.2444 50.0296 26.9436 49.928 26.7444 49.928L20.7444 51.5296L29.846 21.3306C29.9436 21.0298 29.9435 20.729 29.8419 20.4282ZM3.94394 6.9282C4.14316 5.8266 5.64314 5.8266 5.94394 6.9282L8.74474 20.9282H1.14314L3.94394 6.9282ZM9.44394 31.9282C8.64316 31.9282 7.94394 31.229 7.94394 30.4282C7.94394 29.6274 8.64316 28.9282 9.44394 28.9282C10.2447 28.9282 10.9439 29.6274 10.9439 30.4282C10.9439 31.229 10.2447 31.9282 9.44394 31.9282ZM15.8423 63.4282C15.2408 65.3266 14.5415 65.3266 14.0415 63.4282L12.9438 59.9282H16.9438L15.8423 63.4282ZM20.4439 31.9282C19.6432 31.9282 18.9439 31.229 18.9439 30.4282C18.9439 29.6274 19.6432 28.9282 20.4439 28.9282C21.2447 28.9282 21.9439 29.6274 21.9439 30.4282C21.9439 31.229 21.2447 31.9282 20.4439 31.9282ZM21.1432 20.9282L23.944 6.9282C24.1432 5.8266 25.6432 5.8266 25.944 6.9282L28.7448 20.9282H21.1432Z" fill="black"/>
</svg>
