<svg role="img" viewBox="0 0 24 24" xmlns="http://www.w3.org/2000/svg" id="Glassdoor--Streamline-Simple-Icons" height="24" width="24">
  <desc>
    Glassdoor Streamline Icon: https://streamlinehq.com
  </desc>
  <title>Glassdoor</title>
  <path d="M14.1093 0.0006c-0.0749 -0.0074 -0.1348 0.0522 -0.1348 0.127v3.451c0 0.0673 0.0537 0.1194 0.121 0.127 2.619 0.172 4.6092 0.9501 4.6092 3.6814H13.086a0.1343 0.1343 0 0 0 -0.1348 0.1347v8.9644c0 0.0748 0.06 0.1347 0.1348 0.1347h10.0034c0.0748 0 0.1347 -0.0599 0.1347 -0.1347V7.342c0 -2.2374 -0.7996 -4.0558 -2.4159 -5.3279C19.3191 0.8469 17.0874 0.1428 14.1093 0.0006ZM0.9107 7.387a0.1342 0.1342 0 0 0 -0.1347 0.1347v8.9566c0 0.0748 0.06 0.1347 0.1347 0.1347h5.6189c0 2.7313 -1.9902 3.5094 -4.6091 3.6815 -0.0674 0.0075 -0.1192 0.0596 -0.1192 0.127v3.451c0 0.0747 0.06 0.1343 0.1348 0.1269 2.9781 -0.1422 5.2078 -0.8463 6.6969 -2.0136 1.6163 -1.272 2.4159 -3.0905 2.4159 -5.3278V7.5217a0.1343 0.1343 0 0 0 -0.1348 -0.1347z" fill="#000000" stroke-width="1"></path>
</svg>